<svg width="585" height="403" viewBox="0 0 585 403" fill="none" xmlns="http://www.w3.org/2000/svg">
<g clip-path="url(#clip0_158_2)">
<path d="M4.94 383.608C1.65 380.418 0 376.048 0 370.488V284.348C0 282.598 0.41 281.238 1.24 280.258C2.06 279.278 3.25 278.788 4.79 278.788C6.44 278.788 7.7 279.278 8.57 280.258C9.44 281.238 9.88 282.598 9.88 284.348V370.798C9.88 373.578 10.65 375.788 12.2 377.438C13.74 379.088 15.8 379.908 18.38 379.908H70.1C73.7 379.908 75.5 381.348 75.5 384.228C75.5 385.568 75.04 386.598 74.11 387.318C73.18 388.038 71.85 388.398 70.1 388.398H18.83C12.86 388.398 8.23 386.808 4.94 383.608Z" fill="black"/>
<path d="M117.33 383.068C109.09 378.488 102.56 372.008 97.72 363.618C92.88 355.228 90.46 345.478 90.46 334.368C90.46 323.258 92.85 313.478 97.64 305.038C102.43 296.598 108.96 290.118 117.25 285.588C125.53 281.058 134.72 278.798 144.81 278.798C154.9 278.798 164.08 281.058 172.37 285.588C180.65 290.118 187.21 296.598 192.05 305.038C196.89 313.478 199.31 323.258 199.31 334.368C199.31 345.478 196.89 355.238 192.05 363.618C187.21 372.008 180.65 378.488 172.37 383.068C164.08 387.648 154.9 389.938 144.81 389.938C134.72 389.938 125.56 387.648 117.33 383.068ZM167.58 375.658C174.32 372.008 179.65 366.658 183.56 359.598C187.47 352.548 189.43 344.138 189.43 334.358C189.43 324.578 187.45 316.018 183.49 308.958C179.53 301.908 174.17 296.588 167.43 292.978C160.69 289.378 153.15 287.528 144.81 287.418C136.37 287.418 128.81 289.248 122.12 292.898C115.43 296.548 110.13 301.928 106.22 309.028C102.31 316.128 100.35 324.568 100.35 334.348C100.35 344.128 102.3 352.538 106.22 359.588C110.13 366.638 115.43 371.988 122.12 375.648C128.81 379.298 136.37 381.128 144.81 381.128C153.25 381.128 160.84 379.298 167.58 375.648V375.658Z" fill="black"/>
<path d="M356.07 378.058C348.2 370.138 344.26 359.228 344.26 345.328V284.348C344.26 282.598 344.7 281.238 345.57 280.258C346.44 279.278 347.65 278.788 349.2 278.788C350.75 278.788 351.95 279.278 352.83 280.258C353.7 281.238 354.14 282.598 354.14 284.348V345.788C354.14 357.108 357.15 365.838 363.17 371.958C369.19 378.078 377.76 381.148 388.87 381.148C399.98 381.148 408.48 378.038 414.65 371.808C420.83 365.578 423.91 356.908 423.91 345.798V284.358C423.91 282.608 424.37 281.248 425.3 280.268C426.23 279.288 427.46 278.798 429.01 278.798C430.56 278.798 431.74 279.288 432.56 280.268C433.38 281.248 433.8 282.608 433.8 284.358V345.338C433.8 354.288 431.97 362.138 428.32 368.878C424.67 375.618 419.42 380.818 412.57 384.468C405.72 388.118 397.67 389.948 388.41 389.948C374.72 389.948 363.94 385.988 356.07 378.058Z" fill="black"/>
<path d="M464.14 388.478C463.26 387.498 462.83 386.138 462.83 384.388V284.348C462.83 280.638 464.48 278.788 467.77 278.788C469.31 278.788 470.52 279.278 471.4 280.258C472.27 281.238 472.71 282.598 472.71 284.348V384.388C472.71 386.138 472.27 387.498 471.4 388.478C470.52 389.458 469.32 389.948 467.77 389.948C466.22 389.948 465.02 389.458 464.14 388.478Z" fill="black"/>
<path d="M517.86 384.848C509.68 381.448 503.48 376.878 499.26 371.108C498.64 370.288 498.33 369.358 498.33 368.328C498.33 366.888 499 365.648 500.34 364.618C501.06 364.108 501.78 363.848 502.5 363.848C503.94 363.848 505.43 364.728 506.98 366.468C510.99 371.098 516.24 374.678 522.73 377.198C529.21 379.718 536.57 380.978 544.81 380.978C554.38 380.978 561.76 379.228 566.96 375.728C572.16 372.228 574.76 367.188 574.76 360.598C574.76 355.038 572.31 350.538 567.43 347.088C562.54 343.638 554.18 340.628 542.34 338.058C527.52 334.868 516.89 330.798 510.46 325.858C504.03 320.918 500.81 314.438 500.81 306.408C500.81 297.868 504.36 291.128 511.46 286.188C518.56 281.248 528.23 278.778 540.48 278.778C549.95 278.778 558.44 280.428 565.95 283.718C573.46 287.018 578.71 291.438 581.7 296.998C582.21 298.028 582.47 298.908 582.47 299.618C582.47 301.158 581.7 302.398 580.15 303.328C579.53 303.638 578.81 303.788 577.99 303.788C575.83 303.788 574.23 302.968 573.2 301.318C570.42 296.898 566.23 293.498 560.62 291.128C555.01 288.758 548.29 287.578 540.47 287.578C530.49 287.578 523.05 289.148 518.16 292.288C513.27 295.428 510.83 300.138 510.83 306.418C510.83 310.128 511.81 313.268 513.76 315.838C515.71 318.408 518.98 320.678 523.56 322.628C528.14 324.588 534.44 326.488 542.47 328.338C557.39 331.838 568.17 336.108 574.81 341.148C581.45 346.188 584.77 352.678 584.77 360.598C584.77 369.658 581.19 376.808 574.04 382.058C566.89 387.308 557.14 389.928 544.79 389.928C535.01 389.928 526.03 388.228 517.85 384.838L517.86 384.848Z" fill="black"/>
<path d="M239.92 383.718C231.68 379.138 225.15 372.658 220.31 364.268C215.47 355.878 213.05 346.128 213.05 335.018C213.05 323.908 215.44 314.128 220.23 305.688C225.02 297.248 231.55 290.768 239.84 286.238C248.12 281.708 257.31 279.448 267.4 279.448C277.49 279.448 286.67 281.708 294.96 286.238C303.24 290.768 309.8 297.248 314.64 305.688C319.48 314.128 321.9 323.908 321.9 335.018C321.9 346.128 319.48 355.888 314.64 364.268C309.8 372.658 303.24 379.138 294.96 383.718C286.67 388.298 277.49 390.588 267.4 390.588C257.31 390.588 248.15 388.298 239.92 383.718ZM290.18 376.308C296.92 372.658 302.25 367.308 306.16 360.248C310.07 353.198 312.03 344.788 312.03 335.008C312.03 325.228 310.05 316.668 306.09 309.608C302.13 302.558 296.77 297.238 290.03 293.628C283.29 290.028 275.75 288.178 267.41 288.068C258.97 288.068 251.41 289.898 244.72 293.548C238.03 297.198 232.73 302.578 228.82 309.678C224.91 316.778 222.95 325.218 222.95 334.998C222.95 344.778 224.9 353.188 228.82 360.238C232.73 367.288 238.03 372.638 244.72 376.298C251.41 379.948 258.97 381.778 267.41 381.778C275.85 381.778 283.44 379.948 290.18 376.298V376.308Z" fill="black"/>
<path d="M320.69 390.558C295.31 390.558 273.91 370.728 272.33 345.058C272.19 342.758 273.94 340.778 276.24 340.638C278.53 340.488 280.52 342.248 280.66 344.548C282.02 366.638 301.1 383.508 323.2 382.138C325.49 381.998 327.48 383.748 327.62 386.048C327.76 388.348 326.01 390.328 323.71 390.468C322.7 390.528 321.69 390.558 320.69 390.558Z" fill="black"/>
<path d="M311.345 231.79C300.305 231.79 291.324 222.718 291.324 211.569V61.2056L278.697 35.2968L265.613 60.9069V103.018H245.359V177.16C245.359 187.987 236.637 196.797 225.918 196.797C215.2 196.797 206.477 187.987 206.477 177.16V121.933C206.477 116.719 202.276 112.463 197.102 112.463C191.928 112.463 187.727 116.706 187.727 121.933V147.606H150.286C147.391 147.606 145.051 145.241 145.051 142.317C145.051 139.392 147.391 137.027 150.286 137.027H177.242V121.946C177.242 110.895 186.15 101.898 197.09 101.898C208.03 101.898 216.937 110.895 216.937 121.946V177.172C216.937 182.163 220.953 186.219 225.894 186.219C230.834 186.219 234.85 182.163 234.85 177.172V92.4524H255.104V58.3434L278.894 11.8022L301.772 58.7416V211.569C301.772 216.882 306.047 221.2 311.307 221.2C316.568 221.2 320.843 216.882 320.843 211.569V101.051L349.351 68.7467L378.205 102.408L377.502 173.029C377.465 175.555 378.402 177.92 380.138 179.699C381.875 181.479 384.192 182.461 386.68 182.461C391.744 182.461 395.859 178.305 395.859 173.191V137.886H434.494C437.389 137.886 439.729 140.251 439.729 143.176C439.729 146.099 437.389 148.464 434.494 148.464H406.343V173.178C406.343 184.129 397.522 193.027 386.693 193.027C381.382 193.027 376.418 190.924 372.697 187.115C368.976 183.295 366.968 178.243 367.043 172.892L367.696 106.303L349.24 84.7748L331.327 105.084V211.569C331.327 222.718 322.346 231.79 311.307 231.79H311.345Z" fill="black"/>
</g>
<defs>
<clipPath id="clip0_158_2">
<rect width="584.78" height="402.39" fill="white"/>
</clipPath>
</defs>
</svg>
